<?xml version="1.0" encoding="UTF-8"?>
<svg id="Layer_1" xmlns="http://www.w3.org/2000/svg" xmlns:xlink="http://www.w3.org/1999/xlink" version="1.1" viewBox="0 0 200 80">
  <!-- Generator: Adobe Illustrator 29.0.0, SVG Export Plug-In . SVG Version: 2.1.0 Build 186)  -->
  <defs>
    <style>
      .st0 {
        fill: none;
      }

      .st1 {
        fill: #8b5cf6;
        fill-opacity: .8;
      }

      .st2 {
        fill: url(#linear-gradient);
      }

      .st3 {
        clip-path: url(#clippath-1);
      }

      .st4 {
        fill: #10b981;
        fill-opacity: .7;
      }

      .st5 {
        fill: #6366f1;
        fill-opacity: .9;
      }

      .st6 {
        clip-path: url(#clippath);
      }
    </style>
    <clipPath id="clippath">
      <rect class="st0" x="20" y="16" width="98.7" height="25.3"/>
    </clipPath>
    <clipPath id="clippath-1">
      <path class="st0" d="M40.1,33.6c0,2.2-.8,3.8-2.4,5-1.6,1.1-3.9,1.7-7,1.7s-5.1-.5-6.7-1.5c-1.6-1-2.6-2.5-3.1-4.5l4.5-.8c.3,1.2.9,2,1.8,2.5.9.5,2.1.8,3.6.8,3.2,0,4.8-1,4.8-2.9s-.2-1.1-.6-1.5c-.4-.4-.9-.7-1.6-1-.7-.3-2-.6-3.9-1-1.6-.4-2.8-.7-3.4-.9-.6-.2-1.2-.5-1.8-.8-.5-.3-1-.7-1.3-1.1-.4-.5-.6-1-.9-1.6-.2-.6-.3-1.3-.3-2.1,0-2,.7-3.5,2.2-4.6,1.5-1.1,3.7-1.6,6.5-1.6s4.8.4,6.1,1.3c1.4.8,2.3,2.3,2.7,4.2l-4.5.6c-.2-.9-.7-1.7-1.4-2.1-.7-.5-1.7-.7-3-.7-2.8,0-4.2.9-4.2,2.6s.1,1,.4,1.4c.3.4.8.7,1.3.9.6.2,1.8.6,3.5.9,2.1.5,3.6.9,4.5,1.2s1.6.8,2.2,1.3c.5.5.9,1.1,1.2,1.8.3.7.4,1.5.4,2.4ZM47.9,40.3c-1.3,0-2.3-.4-3-1.1-.7-.7-1-1.8-1-3.2v-10h-2.1v-3h2.4l1.4-4h2.8v4h3.2v3h-3.2v8.8c0,.8.2,1.4.5,1.8.3.4.8.6,1.5.6s.8,0,1.5-.2v2.7c-1.1.4-2.3.5-3.7.5ZM58.1,40.3c-1.6,0-2.9-.4-3.8-1.3-.9-.9-1.4-2.1-1.4-3.8s.6-3.1,1.7-4c1.1-.9,2.8-1.4,5-1.4h3.6v-.9c0-1.1-.2-1.9-.6-2.5-.4-.5-1-.8-1.9-.8s-1.4.2-1.8.6c-.4.4-.6,1-.7,1.8l-4.6-.2c.3-1.6,1-2.9,2.2-3.7,1.2-.9,2.9-1.3,5-1.3s3.8.5,4.9,1.6c1.2,1.1,1.8,2.6,1.8,4.5v6.2c0,.9.1,1.6.3,2,.2.4.6.5,1.1.5s.7,0,1-.1v2.4c-.3,0-.5.1-.7.2-.2,0-.4,0-.6.1-.2,0-.4,0-.7,0-.2,0-.5,0-.8,0-1.1,0-1.9-.3-2.4-.8-.5-.5-.8-1.3-1-2.4h0c-1.2,2.2-3.1,3.3-5.6,3.3ZM63.2,32.2h-2.2c-1,0-1.7.2-2.2.4-.4.2-.8.5-1,.8-.2.4-.3.9-.3,1.5s.2,1.4.5,1.8c.4.4.9.6,1.5.6s1.3-.2,1.9-.6c.6-.4,1-.9,1.3-1.5.3-.7.5-1.4.5-2.1v-.9ZM79.1,40.3c-2.6,0-4.6-.8-6-2.3-1.4-1.5-2.1-3.7-2.1-6.4s.7-5,2.1-6.5c1.4-1.6,3.4-2.4,6-2.4s3.6.5,4.9,1.5c1.3,1,2.1,2.4,2.5,4.1l-4.4.2c-.1-.9-.4-1.6-.9-2.1-.5-.5-1.2-.8-2.1-.8-2.3,0-3.4,1.9-3.4,5.7s1.2,5.9,3.5,5.9,1.5-.3,2.1-.8c.6-.5.9-1.3,1.1-2.4l4.4.2c-.2,1.2-.6,2.2-1.2,3.1-.7.9-1.6,1.6-2.6,2.1-1.1.5-2.3.7-3.7.7ZM100.6,40l-4.5-7.7-1.9,1.3v6.4h-4.4v-23.2h4.4v13.3l6-7h4.7l-5.9,6.6,6.4,10.3h-4.8ZM107.6,40v-12.9c0-.9,0-1.7,0-2.3,0-.6,0-1.2,0-1.7h4.2c0,.2,0,.8.1,1.7,0,.9,0,1.6,0,1.9h0c.4-1.2.8-2,1.1-2.5.3-.5.7-.8,1.2-1.1.5-.2,1-.4,1.7-.4s1,0,1.4.2v3.7c-.7-.2-1.3-.2-1.9-.2-1.1,0-2,.4-2.6,1.3-.6.9-.9,2.2-.9,3.9v8.3h-4.4Z"/>
    </clipPath>
    <linearGradient id="linear-gradient" x1="-195.2" y1="449.5" x2="-193.3" y2="449.5" gradientTransform="translate(19098.2 16222) scale(97.8 -36)" gradientUnits="userSpaceOnUse">
      <stop offset="0" stop-color="#6366f1"/>
      <stop offset="0" stop-color="#6366f1"/>
      <stop offset="0" stop-color="#6366f1"/>
      <stop offset=".1" stop-color="#6366f1"/>
      <stop offset=".1" stop-color="#6366f1"/>
      <stop offset=".1" stop-color="#6466f1"/>
      <stop offset=".1" stop-color="#6466f1"/>
      <stop offset=".1" stop-color="#6566f1"/>
      <stop offset=".1" stop-color="#6665f1"/>
      <stop offset=".2" stop-color="#6665f1"/>
      <stop offset=".2" stop-color="#6765f1"/>
      <stop offset=".2" stop-color="#6765f2"/>
      <stop offset=".2" stop-color="#6865f2"/>
      <stop offset=".2" stop-color="#6865f2"/>
      <stop offset=".2" stop-color="#6964f2"/>
      <stop offset=".2" stop-color="#6a64f2"/>
      <stop offset=".2" stop-color="#6a64f2"/>
      <stop offset=".2" stop-color="#6b64f2"/>
      <stop offset=".2" stop-color="#6b64f2"/>
      <stop offset=".2" stop-color="#6c64f2"/>
      <stop offset=".2" stop-color="#6c64f2"/>
      <stop offset=".2" stop-color="#6d63f2"/>
      <stop offset=".3" stop-color="#6e63f2"/>
      <stop offset=".3" stop-color="#6e63f2"/>
      <stop offset=".3" stop-color="#6f63f2"/>
      <stop offset=".3" stop-color="#6f63f3"/>
      <stop offset=".3" stop-color="#7063f3"/>
      <stop offset=".3" stop-color="#7163f3"/>
      <stop offset=".3" stop-color="#7162f3"/>
      <stop offset=".3" stop-color="#7262f3"/>
      <stop offset=".3" stop-color="#7262f3"/>
      <stop offset=".3" stop-color="#7362f3"/>
      <stop offset=".3" stop-color="#7362f3"/>
      <stop offset=".3" stop-color="#7462f3"/>
      <stop offset=".4" stop-color="#7562f3"/>
      <stop offset=".4" stop-color="#7561f3"/>
      <stop offset=".4" stop-color="#7661f3"/>
      <stop offset=".4" stop-color="#7661f3"/>
      <stop offset=".4" stop-color="#7761f4"/>
      <stop offset=".4" stop-color="#7861f4"/>
      <stop offset=".4" stop-color="#7861f4"/>
      <stop offset=".4" stop-color="#7961f4"/>
      <stop offset=".4" stop-color="#7960f4"/>
      <stop offset=".4" stop-color="#7a60f4"/>
      <stop offset=".4" stop-color="#7a60f4"/>
      <stop offset=".4" stop-color="#7b60f4"/>
      <stop offset=".4" stop-color="#7c60f4"/>
      <stop offset=".5" stop-color="#7c60f4"/>
      <stop offset=".5" stop-color="#7d60f4"/>
      <stop offset=".5" stop-color="#7d5ff4"/>
      <stop offset=".5" stop-color="#7e5ff4"/>
      <stop offset=".5" stop-color="#7f5ff4"/>
      <stop offset=".5" stop-color="#7f5ff5"/>
      <stop offset=".5" stop-color="#805ff5"/>
      <stop offset=".5" stop-color="#805ff5"/>
      <stop offset=".5" stop-color="#815ff5"/>
      <stop offset=".5" stop-color="#815ef5"/>
      <stop offset=".5" stop-color="#825ef5"/>
      <stop offset=".5" stop-color="#835ef5"/>
      <stop offset=".5" stop-color="#835ef5"/>
      <stop offset=".6" stop-color="#845ef5"/>
      <stop offset=".6" stop-color="#845ef5"/>
      <stop offset=".6" stop-color="#855ef5"/>
      <stop offset=".6" stop-color="#855df5"/>
      <stop offset=".6" stop-color="#865df5"/>
      <stop offset=".6" stop-color="#875df6"/>
      <stop offset=".6" stop-color="#875df6"/>
      <stop offset=".6" stop-color="#885df6"/>
      <stop offset=".6" stop-color="#885df6"/>
      <stop offset=".6" stop-color="#895df6"/>
      <stop offset=".6" stop-color="#8a5cf6"/>
      <stop offset=".6" stop-color="#8a5cf6"/>
      <stop offset=".7" stop-color="#8b5cf6"/>
      <stop offset=".7" stop-color="#8b5cf6"/>
      <stop offset=".8" stop-color="#8b5cf6"/>
      <stop offset="1" stop-color="#8b5cf6"/>
    </linearGradient>
  </defs>
  <g class="st6">
    <g class="st3">
      <path class="st2" d="M0,0v80h181.8V0H0Z"/>
    </g>
  </g>
  <path class="st5" d="M137,14.7h36c.3,0,.5,0,.8.2.2.1.5.2.7.4s.3.4.4.7c0,.2.2.5.2.8v4c0,.3,0,.5-.2.8-.1.2-.2.5-.4.7s-.4.3-.7.4c-.2,0-.5.2-.8.2h-36c-.3,0-.5,0-.8-.2-.2-.1-.5-.2-.7-.4s-.3-.4-.4-.7c0-.2-.2-.5-.2-.8v-4c0-.3,0-.5.2-.8.1-.2.2-.5.4-.7s.4-.3.7-.4c.2,0,.5-.2.8-.2Z"/>
  <path class="st1" d="M137,24.7h26c.3,0,.5,0,.8.2.2.1.5.2.7.4s.3.4.4.7c0,.2.2.5.2.8v4c0,.3,0,.5-.2.8-.1.2-.2.5-.4.7s-.4.3-.7.4c-.2,0-.5.2-.8.2h-26c-.3,0-.5,0-.8-.2-.2-.1-.5-.2-.7-.4s-.3-.4-.4-.7c0-.2-.2-.5-.2-.8v-4c0-.3,0-.5.2-.8.1-.2.2-.5.4-.7s.4-.3.7-.4c.2,0,.5-.2.8-.2Z"/>
  <path class="st4" d="M137,34.7h26c.3,0,.5,0,.8.2.2.1.5.2.7.4s.3.4.4.7c0,.2.2.5.2.8v4c0,.3,0,.5-.2.8-.1.2-.2.5-.4.7s-.4.3-.7.4c-.2,0-.5.2-.8.2h-26c-.3,0-.5,0-.8-.2-.2-.1-.5-.2-.7-.4s-.3-.4-.4-.7c0-.2-.2-.5-.2-.8v-4c0-.3,0-.5.2-.8.1-.2.2-.5.4-.7s.4-.3.7-.4c.2,0,.5-.2.8-.2Z"/>
</svg>