<?xml version="1.0" encoding="UTF-8"?>
<svg id="Layer_2" data-name="Layer 2" xmlns="http://www.w3.org/2000/svg" viewBox="0 0 451.36 139.71">
  <defs>
    <style>
      .cls-1 {
        font-family: MarselisPro, MarselisPro;
        font-size: 23px;
      }

      .cls-1, .cls-2 {
        fill: #fff;
      }

      .cls-3 {
        letter-spacing: 0em;
      }

      .cls-4 {
        fill: #3ba748;
      }

      .cls-5 {
        letter-spacing: -.04em;
      }

      .cls-6 {
        letter-spacing: -.04em;
      }

      .cls-7 {
        letter-spacing: 0em;
      }

      .cls-8 {
        letter-spacing: 0em;
      }

      .cls-9 {
        letter-spacing: 0em;
      }

      .cls-10 {
        letter-spacing: 0em;
      }

      .cls-11 {
        letter-spacing: -.01em;
      }

      .cls-12 {
        letter-spacing: 0em;
      }

      .cls-13 {
        letter-spacing: 0em;
      }

      .cls-14 {
        letter-spacing: 0em;
      }
    </style>
  </defs>
  <g id="Layer_1-2" data-name="Layer 1">
    <g>
      <g>
        <path class="cls-2" d="M214.81,31.27V0h10.86v40.97l-10.86-9.7ZM78.74,61.82v-29.23h14.11v-8.62h-14.11V7.39c-5.6.56-9.74,2.24-10.86,2.8v13.78h-7.84v8.62h7.84v29.68c0,12.54,4.59,19.71,17.14,19.71,4.48,0,8.29-.9,9.63-1.34v-9.52c-1.34.67-5.38,1.68-8.06,1.68-6.72,0-7.84-2.24-7.84-10.98ZM148.62,42.9v38.19h-9.3c-.9-2.24-1.12-3.47-1.12-6.16-5.82,6.16-11.76,7.28-18.48,7.28-9.18,0-16.58-7.17-16.58-16.35,0-7.73,4.14-14.22,17.36-17.92l9.52-2.69c5.71-1.68,7.73-3.25,7.73-6.61,0-3.81-3.02-6.83-10.19-6.83-6.72,0-14.34,1.9-19.49,3.92v-9.18c4.93-2.69,12.77-3.92,19.49-3.92,13.44,0,21.06,5.26,21.06,20.27ZM137.76,50.51c-1.23,1.12-2.13,1.9-4.7,2.69l-9.3,2.69c-8.4,2.46-9.52,5.49-9.52,9.18,0,4.93,3.36,7.95,8.29,7.95,9.86,0,15.23-5.26,15.23-11.98v-10.53ZM32.59,37.52l-10.98-3.81c-7.39-2.69-9.97-5.6-9.97-11.09,0-7.39,5.38-11.2,14.45-11.2,7.62,0,15.46,2.13,21.17,4.59V5.94c-5.15-2.58-12.54-4.37-20.94-4.37C8.18,1.57.11,11.31.11,23.63c0,9.74,5.38,16.91,17.02,20.83l8.4,2.91c9.52,3.25,13.55,6.94,13.55,13.44,0,7.62-6.61,11.76-17.58,11.76-7.62,0-15.79-2.46-21.5-5.04v10.08c6.94,3.14,12.88,4.82,21.17,4.82,18.93,0,29.46-8.4,29.46-22.74,0-10.86-5.71-17.81-18.03-22.18ZM449.23,32.59c-2.8-6.94-8.74-10.08-17.14-10.08s-15.01,4.26-17.58,9.3c0-1.68-.22-5.6-1.12-7.84h-13.22v57.12h15.79v-28.9c0-12.32,4.14-16.58,11.31-16.58,3.7,0,6.05,1.57,7.17,4.7.78,2.24,1.12,4.59,1.12,11.2v29.57h15.79v-33.04c0-6.61-.56-11.65-2.13-15.46ZM354.25,63.84c0,2.35,2.46,6.27,8.74,6.27,6.83,0,16.8-2.35,23.86-5.38v12.66c-5.38,3.02-13.66,5.15-23.86,5.15-17.7,0-26.66-11.87-26.66-30.02s11.42-30.02,28.11-30.02c15.57,0,22.74,7.73,22.74,17.36,0,10.3-6.05,14.34-18.7,17.25l-10.08,2.35c-2.91.67-4.14,2.02-4.14,4.37ZM356.83,49.5l6.94-1.79c5.26-1.34,7.62-3.47,7.62-6.83,0-3.7-2.58-5.94-7.06-5.94-7.73,0-12.21,6.16-12.21,15.57v1.12c.78-.78,2.13-1.46,4.7-2.13ZM327.04,19.26c1.9-4.37,2.91-7.84,2.91-11.87V2.91h-56.11v13.78h36.85c-8.06,15.34-24.3,36.74-38.3,52.3v12.1h57.68v-13.78h-36.4c14.22-16.8,27.89-35.73,33.38-48.05ZM228.72,63.19l-13.91-12.16v30.05h10.86v-3.81c0-5.63,1.77-10.03,3.97-13.63-.33-.07-.65-.21-.92-.45ZM236.18,57.72c4.92,5.86,12.52,16.92,16.26,23.37h12.99c-5.16-8.6-13.42-20.8-22.49-31.08l-6.77,7.71ZM179.46,70.34l-3.09,2.1c-.34.23-.73.35-1.12.35-.56,0-1.12-.24-1.51-.69-.66-.76-.65-1.9.03-2.65l2.68-2.96c-1.88-3.56-2.73-8.34-2.73-13.95,0-12.32,4.03-20.72,14.34-20.72,5.38,0,8.62.67,13.33,2.46v-9.41c-4.48-1.79-7.95-2.24-13.33-2.24-16.13,0-25.54,11.98-25.54,29.9s9.41,29.9,25.54,29.9c5.38,0,8.85-.45,13.33-2.24v-9.41c-4.7,1.79-7.95,2.46-13.33,2.46-3.6,0-6.42-1.05-8.59-2.91Z"/>
        <polyline class="cls-4" points="175.24 70.78 211.95 45.87 230.04 61.69 256.83 31.17 263.55 36.46 268.63 9.59 243.61 18.51 249.29 23.86 229.11 46.71 211.37 30.88 175.24 70.78"/>
      </g>
      <text class="cls-1" transform="translate(36.57 133.96)"><tspan class="cls-5" x="0" y="0">T</tspan><tspan class="cls-8" x="10.39" y="0">r</tspan><tspan x="17.8" y="0">ack wh</tspan><tspan class="cls-10" x="84.53" y="0">a</tspan><tspan class="cls-3" x="95.52" y="0">t m</tspan><tspan class="cls-9" x="127.18" y="0">a</tspan><tspan x="138.18" y="0">t</tspan><tspan class="cls-7" x="145.79" y="0">t</tspan><tspan x="153.26" y="0">er</tspan><tspan class="cls-11" x="172.3" y="0">s</tspan><tspan x="181.15" y="0">. Ea</tspan><tspan class="cls-13" x="213.18" y="0">r</tspan><tspan x="220.79" y="0">n with cla</tspan><tspan class="cls-12" x="312.8" y="0">r</tspan><tspan class="cls-3" x="320.41" y="0">i</tspan><tspan class="cls-14" x="325.79" y="0">t</tspan><tspan class="cls-6" x="333.61" y="0">y</tspan><tspan x="343.54" y="0">.</tspan></text>
    </g>
  </g>
</svg>